# xmcd
#
# Track frame offsets:
#	150
#	12701
#	27398
#	55094
#	78671
#	92104
#	109453
#	122248
#	140876
#	154201
#	173495
#	186892
#
# Disc length: 2680 seconds
#
# Revision: 0
# Processed by: cddbd v1.5.2PL0 Copyright (c) Steve Scherf et al.
# Submitted via: dBpowerAMP V4.0
#
DISCID=ab0a760c
DTITLE=Waylon Jennings - White Mansions
DYEAR=1900
DGENRE=Country
TTITLE0=Story to Tell
TTITLE1=Dixie, Hold on
TTITLE2=Join Around The Flag
TTITLE3=White Trash
TTITLE4=The Last Dance and the Kentucky Racehorse
TTITLE5=Southern Boys
TTITLE6=Union Mare and Confederate Grey
TTITLE7=No One Would Believe aSummer could be so Cold
TTITLE8=The Southlands Bleeding
TTITLE9=Bring up the Twelve Pounders
TTITLE10=They laid waste to our land
TTITLE11=Dixie now youre done
EXTD=
EXTT0=
EXTT1=
EXTT2=
EXTT3=
EXTT4=
EXTT5=
EXTT6=
EXTT7=
EXTT8=
EXTT9=
EXTT10=
EXTT11=
PLAYORDER=
